<svg xmlns="http://www.w3.org/2000/svg" viewBox="0 0 500 340">
  <!-- Head -->
  <circle cx="118" cy="108" r="68" fill="#1e3a8a"/>

  <!-- Body — freestyle arm-pull silhouette -->
  <path d="
    M 168 98
    C 210 42 315 18 420 72
    C 462 93 478 138 460 172
    C 438 212 370 242 288 250
    C 215 257 148 236 125 202
    C 104 172 112 140 140 120
    Z
  " fill="#1e3a8a"/>

  <!-- White arm-gap cutout -->
  <path d="
    M 308 52
    C 348 44 418 74 448 118
    C 418 100 365 94 330 114
    C 308 98 295 64 308 52
    Z
  " fill="white"/>

  <!-- Wave row 1 -->
  <path d="
    M 0 258
    Q 62 238 125 258
    Q 188 278 250 258
    Q 312 238 375 258
    Q 438 278 500 258
    L 500 292
    Q 438 312 375 292
    Q 312 272 250 292
    Q 188 312 125 292
    Q 62 272 0 292
    Z
  " fill="#00b4d8"/>

  <!-- Wave row 2 -->
  <path d="
    M 0 292
    Q 62 272 125 292
    Q 188 312 250 292
    Q 312 272 375 292
    Q 438 312 500 292
    L 500 340
    L 0 340
    Z
  " fill="#38bdf8" opacity="0.75"/>
</svg>
